# xmcd
#
# Track frame offsets:
#	150
#	10631
#	22896
#	35699
#	45900
#	61091
#	73703
#	86049
#	99511
#	112227
#	123188
#	133610
#	144949
#	159027
#	168815
#	178300
#	192213
#	202184
#	214449
#	224002
#	233988
#	243910
#	254018
#	264208
#	276077
#	286953
#	298580
#	310637
#	321921
#	331424
#	343089
#	354267
#
# Disc length: 4902 seconds
#
# Revision: 0
# Processed by: cddbd v1.5.2PL0 Copyright (c) Steve Scherf et al.
# Submitted via: EasyCDDAExtractor 12.0.1.1
#
DISCID=df132420
DTITLE=Bill Anderson - The First 10 Years 1956 - 1966
DYEAR=2011
DGENRE=Country
TTITLE0=From A Jack To A King
TTITLE1=Little Band Of Gold
TTITLE2=Restless
TTITLE3=Happiness
TTITLE4=Reverend Mr. Black
TTITLE5=It's Been So Long, Darlin'
TTITLE6=Take These Chains From My Heart
TTITLE7=Molly
TTITLE8=8 x 10
TTITLE9=I'll Be Somewhere
TTITLE10=One Mile Over - Two Miles Back
TTITLE11=Take Me Home
TTITLE12=Candy Apple Red
TTITLE13=Cincinnati Ohio
TTITLE14=Easy Come Easy Go
TTITLE15=Five Little Fingers
TTITLE16=Me
TTITLE17=500 Miles Away From Home
TTITLE18=You Don't Have To Be A Baby To Cry
TTITLE19=Abilene
TTITLE20=Green, Green
TTITLE21=I'm Leaving It All Up To You
TTITLE22=I Love You More And More Every Day
TTITLE23=Memory # 1
TTITLE24=In Case You Ever Change Your Mind
TTITLE25=In The Misty Moonlight
TTITLE26=3 A.M.
TTITLE27=Then And Only Then
TTITLE28=Worry
TTITLE29=You Can Have Her
TTITLE30=Then I'll Stop Loving You
TTITLE31=Mountain Dew
EXTD=
EXTT0=
EXTT1=
EXTT2=
EXTT3=
EXTT4=
EXTT5=
EXTT6=
EXTT7=
EXTT8=
EXTT9=
EXTT10=
EXTT11=
EXTT12=
EXTT13=
EXTT14=
EXTT15=
EXTT16=
EXTT17=
EXTT18=
EXTT19=
EXTT20=
EXTT21=
EXTT22=
EXTT23=
EXTT24=
EXTT25=
EXTT26=
EXTT27=
EXTT28=
EXTT29=
EXTT30=
EXTT31=
PLAYORDER=
